<svg xmlns="http://www.w3.org/2000/svg" viewBox="0 0 180 180" fill="none" shape-rendering="auto"><metadata xmlns:rdf="http://www.w3.org/1999/02/22-rdf-syntax-ns#" xmlns:xsi="http://www.w3.org/2001/XMLSchema-instance" xmlns:dc="http://purl.org/dc/elements/1.1/" xmlns:dcterms="http://purl.org/dc/terms/"><rdf:RDF><rdf:Description><dc:title>Bottts</dc:title><dc:creator>Pablo Stanley</dc:creator><dc:source xsi:type="dcterms:URI">https://bottts.com/</dc:source><dcterms:license xsi:type="dcterms:URI">https://bottts.com/</dcterms:license><dc:rights>Remix of „Bottts” (https://bottts.com/) by „Pablo Stanley”, licensed under „Free for personal and commercial use” (https://bottts.com/)</dc:rights></rdf:Description></rdf:RDF></metadata><mask id="viewboxMask"><rect width="180" height="180" rx="0" ry="0" x="0" y="0" fill="#fff" /></mask><g mask="url(#viewboxMask)"><rect fill="#1f2937" width="180" height="180" x="0" y="0" /><g transform="translate(0 66)"><path d="M38 12c-2.95 11.7-19.9 6.67-23.37 18-3.46 11.35 8.03 20 17.53 20" stroke="#2A3544" stroke-width="6" opacity=".9"/><path d="M150 55c8.4 3.49 20.1-7.6 16-16.5-4.1-8.9-16-6.7-16-19.3" stroke="#2A3544" stroke-width="4" opacity=".9"/><mask id="sidesCables01-a" style="mask-type:luminance" maskUnits="userSpaceOnUse" x="21" y="6" width="138" height="58"><g fill="#fff"><rect x="21" y="35" width="16" height="22" rx="2"/><rect x="136" y="42" width="23" height="22" rx="2"/><rect x="136" y="6" width="23" height="18" rx="2"/></g></mask><g mask="url(#sidesCables01-a)"><path d="M0 0h180v76H0V0Z" fill="#ffb300"/><path d="M0 0h180v76H0V0Z" fill="#fff" fill-opacity=".3"/></g></g><g transform="translate(41)"><mask id="topPyramid-a" style="mask-type:luminance" maskUnits="userSpaceOnUse" x="18" y="8" width="64" height="44"><path fill-rule="evenodd" clip-rule="evenodd" d="m50 8 32 44H18L50 8Z" fill="#fff"/></mask><g mask="url(#topPyramid-a)"><path d="M0 0h100v52H0V0Z" fill="#ffb300"/><path d="M0 0h100v52H0V0Z" fill="#fff" fill-opacity=".3"/><path fill="#fff" fill-opacity=".8" d="M50 4h30v48H50z"/></g></g><g transform="translate(25 44)"><mask id="faceSquare01-a" style="mask-type:luminance" maskUnits="userSpaceOnUse" x="0" y="0" width="130" height="120"><rect width="130" height="120" rx="18" fill="#fff"/></mask><g mask="url(#faceSquare01-a)"><path d="M-2-2h134v124H-2V-2Z" fill="#ffb300"/><g transform="translate(-1 -1)"><path d="M69.1 77c-.08.01-.09.02-.1.11.09-.01.1-.02.1-.1ZM81.25 107.1l.13-.1c1.9 0-1.25.19-.13.1ZM86 85.11c.09-.01.1-.02.1-.1-.08 0-.09.01-.1.1ZM15 92c.01.09.02.1.1.11 0-.09-.01-.1-.1-.1Z" fill="#000" fill-opacity=".4"/></g></g></g><g transform="translate(52 124)"><rect x="4" y="4" width="68" height="24" rx="5" fill="#000" fill-opacity=".2"/><rect x="8" y="8" width="60" height="16" rx="2" fill="#000" fill-opacity=".8"/><path d="M9 17h11l2-4 3 7 4-8 2 9 3-11 3 10 3-3h15l3-4 2 7 3-3h4" stroke="#4EFAC9" stroke-width="2" stroke-linecap="round" stroke-linejoin="round"/></g><g transform="translate(38 76)"><path d="M96 2H8c-4.5 0-8 3.5-8 8.03V28c0 4.5 3.5 8 8 8h13c8 0 11 8 18 8h27c7 0 9-8 17-8h13c4.5 0 8-3.5 8-8V10c0-4.5-3.5-8-8-8Z" fill="#000" fill-opacity=".8"/><path d="M87 14H17c-3.5 0-5 3-5 5v2c0 2 1.5 5 5 5h12c6 0 11.62 8 17 8h14c5.38 0 9-8 15-8h12c3.5 0 5-3 5-5v-2c0-2-1.5-5-5-5Z" fill="#FF3D3D"/><path d="M22.44 36.09 37.26 2h11L31.4 40.78l-.76-.58c-2.38-1.82-4.83-3.69-8.2-4.11ZM11.48 36 26.26 2h4L15.48 36h-4Z" fill="#fff" fill-opacity=".2"/></g></g></svg>